<?xml version="1.0" encoding="utf-8"?>
<!-- Generator: Adobe Illustrator 24.1.1, SVG Export Plug-In . SVG Version: 6.00 Build 0)  -->
<svg version="1.1" id="Layer_1" xmlns="http://www.w3.org/2000/svg" xmlns:xlink="http://www.w3.org/1999/xlink" x="0px" y="0px"
	 viewBox="0 0 960 560" style="enable-background:new 0 0 960 560;" xml:space="preserve">
<style type="text/css">
	.st0{fill:#EE4434;}
</style>
<path class="st0" d="M349.88,279.31l33.19-39.55h-23.52l-26.88,32.04v-32.04h-19.04v81.77h19.04v-34.71l29.12,34.71h23.52
	L349.88,279.31z M427.31,290.31c0,8.66-7.02,15.68-15.68,15.68c-8.66,0-15.68-7.02-15.68-15.68c0-8.66,7.02-15.68,15.68-15.68
	C420.29,274.63,427.31,281.65,427.31,290.31 M442.95,290.63c0-17.63-14.29-31.92-31.92-31.92c-17.63,0-31.93,14.29-31.93,31.92
	c0,17.63,14.29,31.92,31.93,31.92C428.65,322.56,442.95,308.27,442.95,290.63 M496.53,290.31c0,8.66-7.02,15.68-15.68,15.68
	c-8.66,0-15.68-7.02-15.68-15.68c0-8.66,7.02-15.68,15.68-15.68C489.51,274.63,496.53,281.65,496.53,290.31 M512.17,290.64v-53.12
	H494.8v24.73c-4.37-2.25-9.31-3.54-14.56-3.54c-17.63,0-31.92,14.29-31.92,31.92c0,17.63,14.29,31.92,31.92,31.92
	C497.87,322.56,512.16,308.27,512.17,290.64 M560.33,299.79c0,5.81-5.95,8.26-8.3,8.26h-10.01c-3.69,0-7.04-2.85-7.04-7.22
	c0-4.37,3.22-7.16,8.26-7.16h17.08C560.33,297.36,560.33,297.98,560.33,299.79 M576.85,302.06v-23.91c0,0-3.48-18.79-27.19-18.79
	c-20.09,0-22.39,2.85-22.39,2.85v13.21c0,0,4.74-1.82,19.23-1.82c14.49,0,13.44,9.11,13.44,9.11s-41.78-5.98-41.78,19.36
	c0,0,0.16,20.5,28.61,20.5C575.22,322.56,576.85,302.06,576.85,302.06 M620.28,290.51l23.79-28.35h-22.4l-19.04,22.7v-47.34h-17.36
	v84.01h17.36V297.5l20.16,24.03h23.52L620.28,290.51z"/>
</svg>
